<svg width="485" height="487" viewBox="0 0 485 487" fill="none" xmlns="http://www.w3.org/2000/svg">
<g clip-path="url(#clip0_5_19)">
<path d="M393.413 321.833H274.99C270.169 321.833 266.26 325.747 266.26 330.574V394.877C266.26 399.705 270.169 403.618 274.99 403.618H393.413C398.235 403.618 402.143 399.705 402.143 394.877V330.574C402.143 325.747 398.235 321.833 393.413 321.833Z" fill="#F7FFF7"/>
<path opacity="0.1" d="M393.413 321.833H274.99C270.169 321.833 266.26 325.747 266.26 330.574V394.877C266.26 399.705 270.169 403.618 274.99 403.618H393.413C398.235 403.618 402.143 399.705 402.143 394.877V330.574C402.143 325.747 398.235 321.833 393.413 321.833Z" fill="#008000"/>
<path d="M364.714 365.686H354.228C353.59 365.686 353.072 366.204 353.072 366.843V390.114C353.072 390.754 353.59 391.272 354.228 391.272H364.714C365.352 391.272 365.87 390.754 365.87 390.114V366.843C365.87 366.204 365.352 365.686 364.714 365.686Z" fill="#F7FFF7"/>
<path d="M389.982 345.787H379.497C378.858 345.787 378.341 346.305 378.341 346.944V390.114C378.341 390.754 378.858 391.272 379.497 391.272H389.982C390.621 391.272 391.138 390.754 391.138 390.114V346.944C391.138 346.305 390.621 345.787 389.982 345.787Z" fill="#F7FFF7"/>
<path d="M288.906 365.686H278.421C277.782 365.686 277.265 366.204 277.265 366.843V390.114C277.265 390.754 277.782 391.272 278.421 391.272H288.906C289.545 391.272 290.062 390.754 290.062 390.114V366.843C290.062 366.204 289.545 365.686 288.906 365.686Z" fill="#F7FFF7"/>
<path d="M314.176 336.739H303.69C303.051 336.739 302.534 337.257 302.534 337.896V390.114C302.534 390.754 303.051 391.272 303.69 391.272H314.176C314.814 391.272 315.331 390.754 315.331 390.114V337.896C315.331 337.257 314.814 336.739 314.176 336.739Z" fill="#F7FFF7"/>
<path d="M339.444 359.951H328.959C328.32 359.951 327.803 360.469 327.803 361.108V390.114C327.803 390.754 328.32 391.272 328.959 391.272H339.444C340.083 391.272 340.6 390.754 340.6 390.114V361.108C340.6 360.469 340.083 359.951 339.444 359.951Z" fill="#F7FFF7"/>
<path d="M180.281 271.813H29.9801C23.8608 271.813 18.9001 276.78 18.9001 282.907V364.519C18.9001 370.646 23.8608 375.613 29.9801 375.613H180.281C186.4 375.613 191.361 370.646 191.361 364.519V282.907C191.361 276.78 186.4 271.813 180.281 271.813Z" fill="#F7FFF7"/>
<path opacity="0.1" d="M180.281 271.813H29.9801C23.8608 271.813 18.9001 276.78 18.9001 282.907V364.519C18.9001 370.646 23.8608 375.613 29.9801 375.613H180.281C186.4 375.613 191.361 370.646 191.361 364.519V282.907C191.361 276.78 186.4 271.813 180.281 271.813Z" fill="#008000"/>
<path d="M143.856 327.47H130.547C129.737 327.47 129.08 328.128 129.08 328.939V358.475C129.08 359.286 129.737 359.943 130.547 359.943H143.856C144.666 359.943 145.323 359.286 145.323 358.475V328.939C145.323 328.128 144.666 327.47 143.856 327.47Z" fill="#F7FFF7"/>
<path d="M175.927 302.215H162.618C161.808 302.215 161.151 302.873 161.151 303.684V358.475C161.151 359.286 161.808 359.944 162.618 359.944H175.927C176.737 359.944 177.394 359.286 177.394 358.475V303.684C177.394 302.873 176.737 302.215 175.927 302.215Z" fill="#F7FFF7"/>
<path d="M47.6421 327.47H34.3335C33.5233 327.47 32.8665 328.128 32.8665 328.939V358.475C32.8665 359.286 33.5233 359.943 34.3335 359.943H47.6421C48.4522 359.943 49.109 359.286 49.109 358.475V328.939C49.109 328.128 48.4522 327.47 47.6421 327.47Z" fill="#F7FFF7"/>
<path d="M79.7131 290.732H66.4045C65.5944 290.732 64.9376 291.39 64.9376 292.201V358.475C64.9376 359.286 65.5944 359.943 66.4045 359.943H79.7131C80.5233 359.943 81.1801 359.286 81.1801 358.475V292.201C81.1801 291.39 80.5233 290.732 79.7131 290.732Z" fill="#F7FFF7"/>
<path d="M111.785 320.191H98.4761C97.6659 320.191 97.0092 320.849 97.0092 321.66V358.475C97.0092 359.286 97.6659 359.943 98.4761 359.943H111.785C112.595 359.943 113.252 359.286 113.252 358.475V321.66C113.252 320.849 112.595 320.191 111.785 320.191Z" fill="#F7FFF7"/>
<path d="M465.241 0H292.622C285.594 0 279.897 5.70459 279.897 12.7416V106.473C279.897 113.509 285.594 119.214 292.622 119.214H465.241C472.269 119.214 477.966 113.509 477.966 106.473V12.7416C477.966 5.70459 472.269 0 465.241 0Z" fill="#F7FFF7"/>
<path opacity="0.1" d="M465.241 0H292.622C285.594 0 279.897 5.70459 279.897 12.7416V106.473C279.897 113.509 285.594 119.214 292.622 119.214H465.241C472.269 119.214 477.966 113.509 477.966 106.473V12.7416C477.966 5.70459 472.269 0 465.241 0Z" fill="#008000"/>
<path d="M423.408 63.9223H408.123C407.192 63.9223 406.438 64.6775 406.438 65.6091V99.5309C406.438 100.462 407.192 101.218 408.123 101.218H423.408C424.338 101.218 425.092 100.462 425.092 99.5309V65.6091C425.092 64.6775 424.338 63.9223 423.408 63.9223Z" fill="#F7FFF7"/>
<path d="M460.241 34.9166H444.956C444.026 34.9166 443.271 35.6718 443.271 36.6035V99.5309C443.271 100.463 444.026 101.218 444.956 101.218H460.241C461.171 101.218 461.926 100.463 461.926 99.5309V36.6035C461.926 35.6718 461.171 34.9166 460.241 34.9166Z" fill="#F7FFF7"/>
<path d="M312.907 63.9223H297.622C296.692 63.9223 295.937 64.6775 295.937 65.6091V99.5309C295.937 100.462 296.692 101.218 297.622 101.218H312.907C313.837 101.218 314.591 100.462 314.591 99.5309V65.6091C314.591 64.6775 313.837 63.9223 312.907 63.9223Z" fill="#F7FFF7"/>
<path d="M349.741 21.7284H334.456C333.525 21.7284 332.771 22.4836 332.771 23.4152V99.5309C332.771 100.463 333.525 101.218 334.456 101.218H349.741C350.671 101.218 351.425 100.463 351.425 99.5309V23.4152C351.425 22.4836 350.671 21.7284 349.741 21.7284Z" fill="#F7FFF7"/>
<path d="M386.574 55.5623H371.289C370.359 55.5623 369.604 56.3176 369.604 57.2492V99.5304C369.604 100.462 370.359 101.217 371.289 101.217H386.574C387.504 101.217 388.258 100.462 388.258 99.5304V57.2492C388.258 56.3176 387.504 55.5623 386.574 55.5623Z" fill="#F7FFF7"/>
<path d="M90.4156 98.3972H6.20743C2.77916 98.3972 0 101.18 0 104.613V150.337C0 153.77 2.77916 156.552 6.20743 156.552H90.4156C93.8439 156.552 96.623 153.77 96.623 150.337V104.613C96.623 101.18 93.8439 98.3972 90.4156 98.3972Z" fill="#F7FFF7"/>
<path opacity="0.3" d="M90.4156 98.3972H6.20743C2.77916 98.3972 0 101.18 0 104.613V150.337C0 153.77 2.77916 156.552 6.20743 156.552H90.4156C93.8439 156.552 96.623 153.77 96.623 150.337V104.613C96.623 101.18 93.8439 98.3972 90.4156 98.3972Z" fill="#008000"/>
<path d="M70.0083 129.58H62.5517C62.0979 129.58 61.73 129.948 61.73 130.403V146.951C61.73 147.405 62.0979 147.774 62.5517 147.774H70.0083C70.4621 147.774 70.83 147.405 70.83 146.951V130.403C70.83 129.948 70.4621 129.58 70.0083 129.58Z" fill="#F7FFF7"/>
<path d="M87.9763 115.43H80.5197C80.0659 115.43 79.698 115.798 79.698 116.253V146.95C79.698 147.405 80.0659 147.773 80.5197 147.773H87.9763C88.4301 147.773 88.798 147.405 88.798 146.95V116.253C88.798 115.798 88.4301 115.43 87.9763 115.43Z" fill="#F7FFF7"/>
<path d="M16.1033 129.58H8.64675C8.19295 129.58 7.82507 129.948 7.82507 130.403V146.951C7.82507 147.405 8.19295 147.774 8.64675 147.774H16.1033C16.5571 147.774 16.925 147.405 16.925 146.951V130.403C16.925 129.948 16.5571 129.58 16.1033 129.58Z" fill="#F7FFF7"/>
<path d="M34.0718 108.997H26.6152C26.1614 108.997 25.7936 109.365 25.7936 109.819V146.951C25.7936 147.405 26.1614 147.774 26.6152 147.774H34.0718C34.5256 147.774 34.8935 147.405 34.8935 146.951V109.819C34.8935 109.365 34.5256 108.997 34.0718 108.997Z" fill="#F7FFF7"/>
<path d="M52.0398 125.502H44.5832C44.1294 125.502 43.7615 125.87 43.7615 126.324V146.95C43.7615 147.405 44.1294 147.773 44.5832 147.773H52.0398C52.4936 147.773 52.8615 147.405 52.8615 146.95V126.324C52.8615 125.87 52.4936 125.502 52.0398 125.502Z" fill="#F7FFF7"/>
<path d="M80.2818 304.526L420.389 304.526C428.741 304.526 435.512 297.746 435.512 289.384L435.512 40.0569C435.512 31.6941 428.741 24.9148 420.389 24.9148L80.2818 24.9148C71.9297 24.9148 65.1589 31.6941 65.1589 40.0569L65.1589 289.384C65.1589 297.746 71.9297 304.526 80.2818 304.526Z" fill="#F7FFF7"/>
<path d="M64.6543 289.384V40.0568C64.659 35.9085 66.3069 31.9314 69.2365 28.998C72.1661 26.0647 76.1382 24.4147 80.2813 24.41H420.389C424.532 24.4147 428.504 26.0647 431.433 28.998C434.363 31.9314 436.011 35.9085 436.016 40.0568V289.384C436.011 293.532 434.363 297.509 431.433 300.443C428.504 303.376 424.532 305.026 420.389 305.031H80.2813C76.1382 305.026 72.1661 303.376 69.2365 300.443C66.3069 297.509 64.659 293.532 64.6543 289.384ZM80.2813 25.4195C76.4055 25.424 72.6898 26.9677 69.9492 29.7117C67.2087 32.4558 65.667 36.1762 65.6625 40.0568V289.384C65.6669 293.264 67.2085 296.985 69.9491 299.729C72.6897 302.473 76.4055 304.017 80.2813 304.021H420.389C424.264 304.017 427.98 302.473 430.721 299.729C433.462 296.985 435.003 293.265 435.007 289.384V40.0568C435.003 36.1761 433.461 32.4556 430.721 29.7116C427.98 26.9675 424.264 25.4239 420.389 25.4195H80.2813Z" fill="#19323C"/>
<path d="M65.1589 40.0553V55.2918H435.51V40.0553C435.51 36.0394 433.917 32.188 431.08 29.3483C428.244 26.5086 424.398 24.9133 420.387 24.9133H80.2818C76.2709 24.9133 72.4244 26.5086 69.5883 29.3483C66.7522 32.188 65.1589 36.0394 65.1589 40.0553Z" fill="#19323C"/>
<path d="M415.501 69.7701H271.194C267.652 69.7701 264.781 72.6453 264.781 76.1919V178.405C264.781 181.952 267.652 184.827 271.194 184.827H415.501C419.043 184.827 421.914 181.952 421.914 178.405V76.1919C421.914 72.6453 419.043 69.7701 415.501 69.7701Z" fill="#F7FFF7"/>
<path opacity="0.15" d="M415.501 69.7701H271.194C267.652 69.7701 264.781 72.6453 264.781 76.1919V178.405C264.781 181.952 267.652 184.827 271.194 184.827H415.501C419.043 184.827 421.914 181.952 421.914 178.405V76.1919C421.914 72.6453 419.043 69.7701 415.501 69.7701Z" fill="#008000"/>
<path d="M292.985 84.1273H280.514C279.934 84.1273 279.465 84.5976 279.465 85.1777V169.419C279.465 169.999 279.934 170.469 280.514 170.469H292.985C293.565 170.469 294.034 169.999 294.034 169.419V85.1777C294.034 84.5976 293.565 84.1273 292.985 84.1273Z" fill="#C5CAC5"/>
<path opacity="0.6" d="M279.465 126.451H294.033V169.419C294.033 169.698 293.922 169.965 293.726 170.162C293.529 170.359 293.262 170.469 292.984 170.469H280.514C280.235 170.469 279.969 170.359 279.772 170.162C279.575 169.965 279.465 169.698 279.465 169.419V126.451Z" fill="#008000"/>
<path d="M321.284 84.1273H308.813C308.233 84.1273 307.763 84.5976 307.763 85.1777V169.419C307.763 169.999 308.233 170.469 308.813 170.469H321.284C321.864 170.469 322.333 169.999 322.333 169.419V85.1777C322.333 84.5976 321.864 84.1273 321.284 84.1273Z" fill="#C5CAC5"/>
<path opacity="0.6" d="M307.763 114.484H322.332V169.419C322.332 169.697 322.221 169.964 322.025 170.161C321.828 170.358 321.561 170.469 321.283 170.469H308.813C308.534 170.469 308.267 170.358 308.071 170.161C307.874 169.964 307.763 169.697 307.763 169.419V114.484Z" fill="#008000"/>
<path d="M406.182 84.1273H393.71C393.13 84.1273 392.661 84.5976 392.661 85.1777V169.419C392.661 169.999 393.13 170.469 393.71 170.469H406.182C406.761 170.469 407.231 169.999 407.231 169.419V85.1777C407.231 84.5976 406.761 84.1273 406.182 84.1273Z" fill="#C5CAC5"/>
<path opacity="0.6" d="M392.661 102.411H407.229V169.42C407.229 169.698 407.119 169.965 406.922 170.162C406.725 170.359 406.458 170.47 406.18 170.47H393.71C393.432 170.47 393.165 170.359 392.969 170.162C392.772 169.965 392.661 169.698 392.661 169.42V102.411H392.661Z" fill="#008000"/>
<path d="M349.584 84.1273H337.112C336.533 84.1273 336.063 84.5976 336.063 85.1777V169.419C336.063 169.999 336.533 170.469 337.112 170.469H349.584C350.163 170.469 350.633 169.999 350.633 169.419V85.1777C350.633 84.5976 350.163 84.1273 349.584 84.1273Z" fill="#C5CAC5"/>
<path opacity="0.6" d="M336.063 145.806H350.631V169.419C350.631 169.698 350.521 169.965 350.324 170.162C350.127 170.359 349.86 170.469 349.582 170.469H337.112C336.834 170.469 336.567 170.359 336.37 170.162C336.173 169.965 336.063 169.698 336.063 169.419V145.806Z" fill="#008000"/>
<path d="M377.883 84.1273H365.411C364.832 84.1273 364.362 84.5976 364.362 85.1777V169.419C364.362 169.999 364.832 170.469 365.411 170.469H377.883C378.462 170.469 378.932 169.999 378.932 169.419V85.1777C378.932 84.5976 378.462 84.1273 377.883 84.1273Z" fill="#C5CAC5"/>
<path opacity="0.6" d="M364.36 130.719H378.929V169.419C378.929 169.697 378.818 169.964 378.621 170.161C378.425 170.358 378.158 170.469 377.88 170.469H365.411C365.273 170.469 365.137 170.442 365.009 170.389C364.882 170.336 364.767 170.259 364.669 170.161C364.572 170.064 364.494 169.948 364.442 169.821C364.389 169.693 364.362 169.557 364.362 169.419V130.719H364.36Z" fill="#008000"/>
<path opacity="0.15" d="M412.733 196.089H272.226C267.155 196.089 263.045 200.205 263.045 205.282V281.462C263.045 286.539 267.155 290.655 272.226 290.655H412.733C417.804 290.655 421.914 286.539 421.914 281.462V205.282C421.914 200.205 417.804 196.089 412.733 196.089Z" fill="#008000"/>
<path d="M358.078 219.71C359.963 219.71 361.491 218.18 361.491 216.293C361.491 214.406 359.963 212.876 358.078 212.876C356.194 212.876 354.666 214.406 354.666 216.293C354.666 218.18 356.194 219.71 358.078 219.71Z" fill="#008000"/>
<path d="M358.078 237.129C359.963 237.129 361.491 235.599 361.491 233.712C361.491 231.825 359.963 230.295 358.078 230.295C356.194 230.295 354.666 231.825 354.666 233.712C354.666 235.599 356.194 237.129 358.078 237.129Z" fill="#262626"/>
<path d="M358.078 254.548C359.963 254.548 361.491 253.019 361.491 251.131C361.491 249.244 359.963 247.714 358.078 247.714C356.194 247.714 354.666 249.244 354.666 251.131C354.666 253.019 356.194 254.548 358.078 254.548Z" fill="#F7FFF7"/>
<path opacity="0.5" d="M358.078 271.967C359.963 271.967 361.491 270.437 361.491 268.55C361.491 266.663 359.963 265.133 358.078 265.133C356.194 265.133 354.666 266.663 354.666 268.55C354.666 270.437 356.194 271.967 358.078 271.967Z" fill="#008000"/>
<path d="M405.439 216.291C405.439 216.804 405.235 217.296 404.873 217.658C404.511 218.021 404.02 218.225 403.508 218.225H370.704C370.248 218.233 369.803 218.084 369.443 217.803C369.083 217.522 368.831 217.125 368.728 216.68C368.671 216.399 368.676 216.108 368.745 215.83C368.814 215.551 368.944 215.291 369.125 215.069C369.306 214.847 369.535 214.668 369.794 214.545C370.053 214.422 370.336 214.358 370.622 214.358H403.508C403.761 214.358 404.013 214.408 404.247 214.505C404.481 214.602 404.694 214.745 404.873 214.924C405.053 215.104 405.195 215.317 405.292 215.552C405.389 215.786 405.439 216.038 405.439 216.291Z" fill="#F7FFF7"/>
<path d="M405.439 233.711C405.439 234.224 405.235 234.716 404.873 235.078C404.511 235.441 404.02 235.645 403.508 235.645H370.724C370.456 235.649 370.191 235.599 369.942 235.498C369.694 235.397 369.469 235.248 369.279 235.058C369.09 234.869 368.94 234.643 368.839 234.395C368.738 234.147 368.688 233.881 368.692 233.612C368.718 233.117 368.933 232.651 369.292 232.31C369.651 231.969 370.127 231.779 370.622 231.779H403.508C403.761 231.779 404.012 231.829 404.247 231.926C404.481 232.023 404.694 232.165 404.873 232.345C405.052 232.524 405.195 232.737 405.292 232.972C405.389 233.206 405.439 233.458 405.439 233.711Z" fill="#F7FFF7"/>
<path d="M405.439 251.131C405.439 251.644 405.235 252.136 404.873 252.498C404.511 252.861 404.02 253.064 403.508 253.064H370.423C369.963 253.064 369.522 252.882 369.197 252.556C368.872 252.23 368.689 251.789 368.689 251.328V250.935C368.689 250.475 368.872 250.033 369.197 249.707C369.522 249.382 369.963 249.199 370.423 249.199H403.508C403.761 249.199 404.012 249.249 404.247 249.346C404.481 249.443 404.694 249.585 404.873 249.765C405.052 249.944 405.195 250.157 405.292 250.392C405.389 250.626 405.439 250.877 405.439 251.131Z" fill="#F7FFF7"/>
<path d="M405.439 268.551C405.439 269.064 405.235 269.556 404.873 269.918C404.511 270.281 404.02 270.484 403.508 270.484H370.712C370.255 270.493 369.809 270.345 369.448 270.064C369.087 269.783 368.833 269.387 368.728 268.941C368.67 268.66 368.676 268.37 368.745 268.091C368.813 267.813 368.943 267.553 369.124 267.331C369.306 267.108 369.534 266.929 369.793 266.806C370.052 266.683 370.335 266.62 370.621 266.62H403.507C403.76 266.619 404.011 266.669 404.246 266.766C404.48 266.863 404.693 267.005 404.872 267.185C405.052 267.364 405.194 267.577 405.291 267.812C405.388 268.046 405.438 268.297 405.439 268.551Z" fill="#F7FFF7"/>
<path d="M294.045 242.422C294.046 246.587 295.337 250.65 297.74 254.05C300.143 257.45 303.539 260.021 307.462 261.407L301.945 274.879C294.358 272.016 288.014 266.579 284.019 259.513C280.024 252.448 278.632 244.204 280.084 236.217C281.537 228.229 285.742 221.005 291.967 215.803C298.193 210.601 306.043 207.751 314.152 207.749V222.293C308.82 222.293 303.706 224.413 299.935 228.188C296.165 231.963 294.046 237.083 294.045 242.422Z" fill="#008000"/>
<path d="M348.784 242.422H334.258C334.258 237.082 332.14 231.962 328.369 228.186C324.599 224.411 319.485 222.29 314.152 222.29V207.746C323.337 207.746 332.146 211.4 338.64 217.902C345.135 224.405 348.784 233.225 348.784 242.422Z" fill="#262626"/>
<path d="M348.784 242.422C348.783 250.279 346.118 257.903 341.226 264.046C336.333 270.189 329.503 274.487 321.852 276.236L319.392 261.86C323.659 260.706 327.427 258.176 330.114 254.663C332.801 251.149 334.258 246.847 334.259 242.422H348.784Z" fill="#F7FFF7"/>
<path opacity="0.5" d="M321.852 276.236C315.226 277.739 308.306 277.267 301.945 274.878L307.462 261.407C311.302 262.757 315.46 262.915 319.391 261.862L321.852 276.236Z" fill="#008000"/>
<path opacity="0.15" d="M242.885 69.7701H87.8109C82.7997 69.7701 78.7372 73.8377 78.7372 78.8554V281.569C78.7372 286.587 82.7997 290.655 87.8109 290.655H242.885C247.897 290.655 251.959 286.587 251.959 281.569V78.8554C251.959 73.8377 247.897 69.7701 242.885 69.7701Z" fill="#008000"/>
<path d="M212.215 155.977C212.215 166.056 209.23 175.909 203.637 184.289C198.045 192.67 190.096 199.202 180.796 203.059C171.496 206.916 161.263 207.925 151.39 205.959C141.517 203.993 132.448 199.139 125.33 192.012C118.212 184.885 113.365 175.805 111.401 165.92C109.437 156.034 110.445 145.788 114.297 136.476C118.149 127.164 124.673 119.205 133.042 113.605C141.412 108.006 151.252 105.017 161.319 105.017V155.977H212.215Z" fill="#C5CAC5"/>
<path opacity="0.6" d="M218.455 149.357H167.561V98.3972C181.059 98.3978 194.004 103.767 203.549 113.324C213.093 122.881 218.455 135.842 218.455 149.357Z" fill="#008000"/>
<path opacity="0.6" d="M108.543 235.846C110.428 235.846 111.956 234.317 111.956 232.429C111.956 230.542 110.428 229.012 108.543 229.012C106.658 229.012 105.13 230.542 105.13 232.429C105.13 234.317 106.658 235.846 108.543 235.846Z" fill="#008000"/>
<path d="M108.543 253.266C110.428 253.266 111.956 251.736 111.956 249.849C111.956 247.962 110.428 246.432 108.543 246.432C106.658 246.432 105.13 247.962 105.13 249.849C105.13 251.736 106.658 253.266 108.543 253.266Z" fill="#C5CAC5"/>
<path opacity="0.6" d="M225.468 232.431C225.468 232.944 225.264 233.435 224.902 233.798C224.54 234.16 224.049 234.364 223.537 234.364H121.169C120.712 234.372 120.267 234.223 119.907 233.942C119.547 233.661 119.295 233.264 119.192 232.819C119.135 232.538 119.141 232.247 119.209 231.969C119.278 231.69 119.408 231.43 119.589 231.208C119.771 230.986 119.999 230.807 120.258 230.684C120.517 230.561 120.8 230.497 121.087 230.497H223.537C223.791 230.497 224.042 230.547 224.276 230.644C224.51 230.742 224.723 230.884 224.903 231.064C225.082 231.243 225.224 231.456 225.321 231.691C225.418 231.926 225.468 232.177 225.468 232.431Z" fill="#008000"/>
<path d="M225.468 249.848C225.468 250.361 225.264 250.853 224.902 251.215C224.54 251.578 224.049 251.781 223.537 251.781H121.189C120.921 251.785 120.655 251.736 120.407 251.635C120.159 251.534 119.933 251.385 119.744 251.195C119.554 251.006 119.404 250.78 119.304 250.532C119.203 250.284 119.153 250.017 119.156 249.749C119.182 249.254 119.397 248.788 119.756 248.447C120.115 248.105 120.592 247.915 121.087 247.915H223.537C223.791 247.915 224.042 247.965 224.276 248.062C224.51 248.159 224.723 248.302 224.902 248.481C225.082 248.661 225.224 248.874 225.321 249.109C225.418 249.343 225.468 249.594 225.468 249.848Z" fill="#F7FFF7"/>
<path d="M63.9471 432.588C63.8926 432.589 63.8387 432.578 63.7885 432.557C63.7382 432.536 63.6925 432.505 63.6542 432.467C63.0699 431.882 62.1187 421.157 59.5554 389.224C58.5063 376.157 57.5153 363.816 56.7924 356.315C56.742 355.78 56.5333 355.717 56.4653 355.697C55.4757 355.398 52.4658 357.774 50.7856 359.855C50.7514 359.898 50.7092 359.933 50.6613 359.959C50.6135 359.985 50.5611 360.002 50.5069 360.007C50.4528 360.013 50.398 360.008 50.3458 359.993C50.2936 359.977 50.245 359.952 50.2026 359.917C50.1603 359.883 50.1251 359.841 50.0991 359.793C50.0731 359.745 50.0568 359.692 50.051 359.638C50.0453 359.584 50.0503 359.529 50.0657 359.477C50.0811 359.425 50.1067 359.376 50.1409 359.334C51.2499 357.958 54.8738 354.351 56.7037 354.902C56.9789 354.997 57.2163 355.177 57.3809 355.417C57.5455 355.658 57.6285 355.944 57.6176 356.236C58.341 363.742 59.3316 376.088 60.3816 389.157C61.9392 408.563 63.7036 430.546 64.2838 431.931C64.3279 431.993 64.3541 432.066 64.3595 432.142C64.365 432.218 64.3495 432.294 64.3147 432.362C64.28 432.43 64.2273 432.486 64.1624 432.526C64.0976 432.566 64.0231 432.587 63.9471 432.587V432.588Z" fill="#494949"/>
<path d="M55.7289 370.079C62.6051 364.56 64.8841 355.97 60.8193 350.893C56.7545 345.815 47.885 346.173 41.0089 351.692C34.1327 357.211 31.8536 365.801 35.9184 370.878C39.9833 375.956 48.8527 375.598 55.7289 370.079Z" fill="#0CBC8B"/>
<path opacity="0.2" d="M55.7289 370.079C62.6051 364.56 64.8841 355.97 60.8193 350.893C56.7545 345.815 47.885 346.173 41.0089 351.692C34.1327 357.211 31.8536 365.801 35.9184 370.878C39.9833 375.956 48.8527 375.598 55.7289 370.079Z" fill="#F7FFF7"/>
<path d="M37.845 372.169C37.8057 372.169 37.7672 372.158 37.7341 372.137C37.7009 372.115 37.6745 372.085 37.6578 372.05C37.6411 372.014 37.6348 371.975 37.6398 371.935C37.6447 371.896 37.6606 371.86 37.6857 371.829L57.2824 348.167C57.3175 348.125 57.368 348.098 57.4227 348.093C57.4774 348.088 57.532 348.105 57.5743 348.14C57.6166 348.175 57.6432 348.226 57.6483 348.281C57.6534 348.335 57.6366 348.39 57.6015 348.432L38.0048 372.094C37.9853 372.118 37.9609 372.137 37.9333 372.15C37.9056 372.163 37.8755 372.169 37.845 372.169Z" fill="#F7FFF7"/>
<path d="M68.2213 427.516C68.1552 427.516 68.0902 427.5 68.0315 427.469C67.9728 427.439 67.9223 427.395 67.884 427.341C67.8457 427.287 67.8209 427.225 67.8115 427.159C67.8021 427.094 67.8085 427.027 67.8301 426.965L75.1899 405.768C75.4064 405.145 75.7756 404.587 76.2637 404.144C76.7517 403.701 77.3431 403.387 77.9835 403.233C78.6239 403.078 79.2928 403.087 79.929 403.258C80.5652 403.429 81.1482 403.758 81.6247 404.213L85.5163 407.936C85.5934 408.012 85.6374 408.116 85.6388 408.225C85.6403 408.333 85.5991 408.438 85.524 408.517C85.449 408.596 85.3461 408.641 85.2376 408.645C85.129 408.648 85.0235 408.609 84.9436 408.535L81.052 404.813C80.676 404.454 80.2157 404.194 79.7135 404.059C79.2112 403.923 78.6831 403.917 78.1775 404.039C77.6719 404.161 77.2051 404.408 76.8198 404.758C76.4345 405.108 76.143 405.549 75.9723 406.041L68.6125 427.24C68.5838 427.321 68.5308 427.391 68.4607 427.44C68.3906 427.49 68.307 427.516 68.2213 427.516Z" fill="#494949"/>
<path d="M96.3886 419.67C101.484 415.631 101.182 406.749 95.7121 399.83C90.2427 392.911 81.6777 390.577 76.5818 394.615C71.4859 398.654 71.7888 407.537 77.2583 414.456C82.7278 421.374 91.2927 423.709 96.3886 419.67Z" fill="#0CBC8B"/>
<path d="M60.6029 431.237C60.5097 431.237 60.4193 431.205 60.3461 431.148C60.2729 431.09 60.2213 431.009 60.1996 430.918L47.8493 379.202C47.765 378.849 47.5853 378.527 47.3299 378.27C47.0744 378.013 46.7531 377.831 46.4013 377.746C46.0495 377.66 45.6808 377.673 45.3359 377.783C44.9909 377.893 44.683 378.097 44.4461 378.371L40.6382 382.777C40.6031 382.819 40.5598 382.855 40.5108 382.881C40.4619 382.907 40.4082 382.923 40.353 382.927C40.2979 382.932 40.2423 382.926 40.1896 382.909C40.1369 382.892 40.0882 382.864 40.0463 382.828C40.0044 382.791 39.9702 382.747 39.9458 382.697C39.9213 382.648 39.907 382.594 39.9037 382.538C39.9005 382.483 39.9084 382.427 39.9269 382.375C39.9454 382.323 39.9742 382.275 40.0116 382.234L43.8195 377.828C44.1563 377.438 44.5938 377.149 45.084 376.993C45.5741 376.836 46.0979 376.818 46.5977 376.94C47.0976 377.062 47.5541 377.32 47.9171 377.685C48.2801 378.05 48.5355 378.508 48.6553 379.009L61.0056 430.725C61.0183 430.778 61.0205 430.833 61.0119 430.887C61.0034 430.941 60.9843 430.993 60.9559 431.039C60.9274 431.085 60.8901 431.126 60.846 431.158C60.802 431.19 60.7521 431.213 60.6992 431.225C60.6677 431.233 60.6353 431.237 60.6029 431.237Z" fill="#494949"/>
<path d="M56.0449 394.268C57.5466 385.573 53.5724 377.626 47.1684 376.517C40.7644 375.408 34.3556 381.558 32.8539 390.253C31.3522 398.947 35.3264 406.895 41.7304 408.004C48.1344 409.112 54.5432 402.963 56.0449 394.268Z" fill="#0CBC8B"/>
<path d="M63.9476 432.588C63.9307 432.588 63.9139 432.587 63.8971 432.585C63.7881 432.572 63.6889 432.516 63.6212 432.429C63.5535 432.342 63.523 432.232 63.5362 432.123L71.4243 367.996C71.5102 367.297 71.7958 366.638 72.2467 366.098C72.6976 365.559 73.2947 365.161 73.9662 364.952C74.6377 364.744 75.3549 364.734 76.0318 364.924C76.7086 365.114 77.3162 365.496 77.7815 366.024L86.7977 376.248C86.8337 376.289 86.8614 376.337 86.8791 376.388C86.8968 376.44 86.9042 376.494 86.9008 376.549C86.8975 376.603 86.8835 376.656 86.8596 376.705C86.8357 376.754 86.8024 376.798 86.7617 376.834C86.7209 376.87 86.6734 376.898 86.6219 376.916C86.5705 376.933 86.516 376.941 86.4617 376.937C86.4074 376.934 86.3542 376.92 86.3053 376.896C86.2564 376.872 86.2127 376.839 86.1767 376.798L77.1604 366.574C76.8008 366.166 76.3313 365.871 75.8083 365.724C75.2852 365.577 74.7309 365.584 74.212 365.745C73.693 365.906 73.2315 366.213 72.8829 366.631C72.5343 367.048 72.3135 367.557 72.247 368.097L64.3584 432.224C64.3461 432.324 64.2975 432.417 64.2219 432.484C64.1462 432.551 64.0486 432.588 63.9476 432.588Z" fill="#494949"/>
<path d="M96.044 381.931C99.1898 376.236 95.4885 368.158 87.777 363.887C80.0656 359.616 71.264 360.77 68.1183 366.464C64.9725 372.158 68.6738 380.237 76.3853 384.508C84.0967 388.779 92.8983 387.625 96.044 381.931Z" fill="#0CBC8B"/>
<path opacity="0.2" d="M96.3886 419.67C101.484 415.631 101.182 406.749 95.7121 399.83C90.2427 392.911 81.6777 390.577 76.5818 394.615C71.4859 398.654 71.7888 407.537 77.2583 414.456C82.7278 421.374 91.2927 423.709 96.3886 419.67Z" fill="#F7FFF7"/>
<path opacity="0.5" d="M56.0449 394.268C57.5466 385.573 53.5724 377.626 47.1684 376.517C40.7644 375.408 34.3556 381.558 32.8539 390.253C31.3522 398.947 35.3264 406.895 41.7304 408.004C48.1344 409.112 54.5432 402.963 56.0449 394.268Z" fill="#F7FFF7"/>
<path opacity="0.5" d="M96.044 381.931C99.1898 376.236 95.4885 368.158 87.777 363.887C80.0656 359.616 71.264 360.77 68.1183 366.464C64.9725 372.158 68.6738 380.237 76.3853 384.508C84.0967 388.779 92.8983 387.625 96.044 381.931Z" fill="#F7FFF7"/>
<path d="M74.0365 487H53.8576L50.5139 422.356H77.3802L74.0365 487Z" fill="#19323C"/>
<path opacity="0.3" d="M74.0365 487H53.8576L50.5139 422.356H77.3802L74.0365 487Z" fill="#F7FFF7"/>
<path d="M96.3906 419.876C96.3593 419.876 96.3283 419.869 96.3001 419.856C96.2719 419.842 96.2472 419.822 96.2278 419.797L76.4209 394.743C76.404 394.721 76.3914 394.697 76.384 394.671C76.3765 394.645 76.3743 394.617 76.3774 394.59C76.3805 394.563 76.3889 394.537 76.4021 394.513C76.4153 394.489 76.4331 394.468 76.4544 394.451C76.4757 394.434 76.5002 394.422 76.5263 394.414C76.5525 394.407 76.5799 394.405 76.6069 394.408C76.634 394.411 76.6601 394.419 76.6839 394.433C76.7077 394.446 76.7286 394.464 76.7455 394.485L96.553 419.54C96.587 419.583 96.6025 419.638 96.596 419.693C96.5896 419.747 96.5618 419.797 96.5187 419.831C96.4823 419.86 96.4372 419.876 96.3906 419.876Z" fill="#F7FFF7"/>
<path d="M94.7271 383.938C94.6833 383.938 94.6406 383.924 94.6051 383.898L69.2592 365.367C69.2364 365.352 69.2169 365.331 69.202 365.308C69.1871 365.285 69.177 365.259 69.1723 365.231C69.1676 365.204 69.1685 365.176 69.1748 365.149C69.1811 365.122 69.1928 365.096 69.2091 365.074C69.2254 365.052 69.246 365.033 69.2698 365.018C69.2935 365.004 69.3199 364.995 69.3473 364.991C69.3747 364.987 69.4026 364.989 69.4294 364.996C69.4562 365.003 69.4813 365.015 69.5032 365.032L94.8496 383.563C94.885 383.589 94.9112 383.625 94.9247 383.667C94.9381 383.708 94.938 383.753 94.9244 383.795C94.9108 383.837 94.8844 383.873 94.849 383.899C94.8135 383.924 94.7709 383.938 94.7271 383.938Z" fill="#F7FFF7"/>
<path d="M40.7027 407.732C40.6845 407.732 40.6663 407.73 40.6488 407.725C40.596 407.711 40.551 407.676 40.5236 407.629C40.4961 407.582 40.4884 407.526 40.5021 407.473L48.5706 377.204C48.5853 377.151 48.6198 377.107 48.6669 377.079C48.7139 377.052 48.7698 377.044 48.8227 377.057C48.8755 377.071 48.9206 377.105 48.948 377.153C48.9755 377.2 48.9832 377.256 48.9694 377.309L40.9023 407.578C40.8906 407.622 40.8647 407.661 40.8286 407.689C40.7925 407.717 40.7483 407.732 40.7027 407.732Z" fill="#F7FFF7"/>
<path d="M452.41 487H38.8401C38.7465 487 38.6567 486.963 38.5905 486.896C38.5244 486.83 38.4872 486.74 38.4872 486.647C38.4872 486.553 38.5244 486.463 38.5905 486.397C38.6567 486.331 38.7465 486.293 38.8401 486.293H452.41C452.503 486.293 452.593 486.331 452.659 486.397C452.725 486.463 452.763 486.553 452.763 486.647C452.763 486.74 452.725 486.83 452.659 486.896C452.593 486.963 452.503 487 452.41 487Z" fill="#19323C"/>
<path d="M144.058 464.35C144.058 464.35 146.334 476.164 157.379 476.824C168.423 477.484 166.029 486.293 166.029 486.293H123.818V465.175L144.058 464.35Z" fill="#008000"/>
<path d="M120.956 248.864C120.956 248.864 124.112 245.313 124.085 253.368C123.98 283.414 121.955 471.89 121.955 471.89L149.694 471.656L166.497 247.643L120.956 248.864Z" fill="#262626"/>
<path d="M191.423 464.35C191.423 464.35 193.699 476.164 204.745 476.822C215.792 477.48 213.396 486.291 213.396 486.291H171.184V465.175L191.423 464.35Z" fill="#008000"/>
<path d="M196.788 251.197C196.788 251.197 200.254 353.889 199.894 358.908L196.635 471.11L169.355 471.615L164.956 354.848C164.956 354.848 162.073 322.638 154.3 292.728C150.323 277.377 147.93 261.659 147.158 245.819L196.788 251.197Z" fill="#262626"/>
<path d="M160.8 324.005L163.074 289.174C163.074 289.174 165.411 303.654 165.411 316.135C165.411 322.236 164.156 346.39 164.156 346.39L160.8 324.005Z" fill="#0A0A0A"/>
<path d="M120.654 248.861L120.564 248.866C120.564 248.866 120.63 247.114 120.654 248.861Z" fill="#333333"/>
<path d="M120.768 248.861L120.677 248.866C120.677 248.866 120.743 247.114 120.768 248.861Z" fill="#333333"/>
<path d="M272.766 165.509C272.599 165.178 272.333 164.907 272.006 164.733C271.678 164.56 271.305 164.492 270.937 164.54C270.94 164.507 270.933 164.474 270.917 164.446C270.9 164.424 270.877 164.407 270.852 164.396C270.826 164.386 270.798 164.382 270.77 164.386L272.011 163.496C272.382 163.241 272.649 162.861 272.762 162.425C272.875 161.989 272.826 161.526 272.624 161.123C272.413 160.732 272.064 160.433 271.645 160.284C271.226 160.136 270.766 160.149 270.356 160.32C270.36 160.303 270.347 160.286 270.345 160.27L270.855 159.904C271.203 159.663 271.458 159.309 271.576 158.901C271.694 158.494 271.667 158.058 271.501 157.667C271.391 157.425 271.23 157.21 271.027 157.037C270.825 156.865 270.587 156.74 270.33 156.671C270.074 156.602 269.805 156.591 269.543 156.638C269.282 156.685 269.034 156.79 268.818 156.945L267.642 157.79C267.638 157.782 267.642 157.774 267.637 157.768C267.633 157.761 267.62 157.759 267.613 157.752C267.883 157.447 268.042 157.06 268.064 156.654C268.085 156.247 267.968 155.846 267.731 155.515C267.177 154.62 265.895 154.804 265.134 155.349L258.212 160.137L259.449 158.051C259.698 157.649 259.785 157.168 259.694 156.705C259.602 156.241 259.339 155.83 258.956 155.553C258.754 155.417 258.526 155.324 258.286 155.28C258.046 155.235 257.8 155.24 257.562 155.294C257.325 155.348 257.1 155.45 256.903 155.593C256.706 155.737 256.54 155.919 256.416 156.129L249.661 167.517C248.868 168.853 248.627 170.446 248.989 171.957C249.35 173.468 250.286 174.778 251.597 175.61C253.118 176.574 254.892 177.061 256.691 177.01C258.49 176.958 260.233 176.369 261.696 175.32L272.149 167.817C272.497 167.558 272.747 167.189 272.859 166.771C272.971 166.352 272.938 165.907 272.766 165.509Z" fill="#E98862"/>
<g opacity="0.25">
<path d="M260.792 162.52C260.817 162.556 260.855 162.579 260.898 162.587C260.94 162.594 260.984 162.584 261.02 162.559L267.597 157.998C267.615 157.986 267.63 157.97 267.642 157.951C267.654 157.933 267.662 157.913 267.666 157.891C267.67 157.87 267.669 157.848 267.665 157.827C267.66 157.805 267.651 157.785 267.639 157.767C267.627 157.749 267.611 157.734 267.593 157.722C267.574 157.711 267.554 157.703 267.532 157.699C267.511 157.695 267.489 157.695 267.468 157.7C267.447 157.704 267.426 157.713 267.409 157.725L260.831 162.287C260.795 162.312 260.771 162.35 260.763 162.393C260.755 162.437 260.764 162.481 260.789 162.517L260.792 162.52Z" fill="#19323C"/>
</g>
<g opacity="0.25">
<path d="M262.721 165.481C262.746 165.516 262.785 165.539 262.827 165.547C262.87 165.554 262.913 165.544 262.949 165.519L270.29 160.429C270.325 160.404 270.35 160.365 270.358 160.322C270.366 160.279 270.356 160.234 270.331 160.198C270.305 160.163 270.267 160.139 270.224 160.132C270.181 160.124 270.137 160.133 270.1 160.156L262.76 165.247C262.724 165.272 262.7 165.31 262.692 165.353C262.684 165.397 262.694 165.441 262.719 165.478L262.721 165.481Z" fill="#19323C"/>
</g>
<g opacity="0.25">
<path d="M264.792 168.698C264.817 168.733 264.855 168.757 264.898 168.764C264.94 168.772 264.984 168.762 265.02 168.737L270.875 164.677C270.911 164.652 270.936 164.613 270.944 164.57C270.952 164.527 270.942 164.482 270.917 164.446C270.892 164.41 270.854 164.385 270.811 164.377C270.767 164.369 270.723 164.379 270.687 164.404L264.831 168.465C264.795 168.49 264.771 168.528 264.763 168.571C264.755 168.615 264.764 168.659 264.789 168.695L264.792 168.698Z" fill="#19323C"/>
</g>
<path d="M245.675 164.923L225.835 198.756L201.626 166.962L181.52 185.111L215.854 229.634L216.079 229.951C217.453 231.836 219.284 233.339 221.399 234.319C223.514 235.3 225.843 235.725 228.168 235.554C230.492 235.384 232.735 234.624 234.685 233.346C236.635 232.067 238.228 230.313 239.313 228.248L267.527 177.091L245.675 164.923Z" fill="#008000"/>
<path d="M223.889 202.825C223.846 202.825 223.803 202.814 223.766 202.793C223.728 202.772 223.696 202.741 223.674 202.705C223.651 202.668 223.638 202.626 223.637 202.582C223.635 202.539 223.645 202.496 223.664 202.458L225.61 198.641C225.64 198.582 225.693 198.537 225.756 198.516C225.82 198.496 225.889 198.501 225.949 198.532C226.008 198.562 226.053 198.615 226.074 198.679C226.094 198.743 226.089 198.812 226.058 198.871L224.113 202.687C224.092 202.729 224.06 202.764 224.021 202.788C223.981 202.812 223.935 202.825 223.889 202.825Z" fill="#19323C"/>
<path d="M200.228 198.563L199.622 209.249L200.126 209.278L200.731 198.592L200.228 198.563Z" fill="#19323C"/>
<path d="M136.297 121.226C136.297 121.226 135.368 133.121 132.643 137.408C124.799 149.752 122.407 163.714 130.033 171.11C137.659 178.506 186.843 179.181 190.763 162.414C194.063 148.3 187.349 146.701 185.846 135.007C185.166 129.716 183.255 118.617 183.255 118.617" fill="#0A0A0A"/>
<path d="M178.242 159.734C178.157 159.723 177.215 175.377 159.053 174.012C146.48 173.069 141.997 159.712 141.709 159.712C143.064 159.424 145.347 159.005 145.949 158.682C147.929 157.617 150.379 156.509 151.017 152.659C151.385 150.439 150.761 139.089 150.953 136.844L170.253 141.157C169.983 145.898 168.096 156.89 174.711 158.836C175.812 159.157 176.998 159.453 178.242 159.734Z" fill="#E98862"/>
<path opacity="0.52" d="M170.523 154.344C170.221 153.368 170.026 152.363 169.943 151.345C169.73 149.022 169.773 146.682 170.069 144.369C166.146 143.838 162.451 142.217 159.402 139.689C159.044 141.015 157.073 146.806 157.619 148.064C158.65 150.445 163.497 154.344 170.523 154.344Z" fill="#19323C"/>
<path d="M167.965 149.417C160.348 150.066 150.538 146.904 148.616 136.735L146.882 127.56C144.96 117.391 148.736 108.137 158.299 106.325C167.861 104.513 176.567 111.402 178.489 121.571L179.256 125.633C179.994 129.534 181.556 148.259 167.965 149.417Z" fill="#E98862"/>
<path d="M176.531 126.075C177.193 126.075 177.73 125.538 177.73 124.875C177.73 124.212 177.193 123.675 176.531 123.675C175.869 123.675 175.333 124.212 175.333 124.875C175.333 125.538 175.869 126.075 176.531 126.075Z" fill="#19323C"/>
<path d="M164.251 127.718C164.913 127.718 165.45 127.181 165.45 126.518C165.45 125.855 164.913 125.318 164.251 125.318C163.589 125.318 163.052 125.855 163.052 126.518C163.052 127.181 163.589 127.718 164.251 127.718Z" fill="#19323C"/>
<path opacity="0.52" d="M170.989 135.32L171.008 135.317C171.395 135.241 171.778 135.143 172.155 135.024C172.717 134.843 173.453 134.544 173.357 134.035C173.248 133.456 170.481 127.504 170.166 126.828C170.153 126.798 170.133 126.772 170.11 126.75C170.086 126.728 170.058 126.711 170.028 126.699C169.997 126.688 169.965 126.683 169.933 126.684C169.9 126.686 169.868 126.693 169.839 126.707C169.81 126.721 169.783 126.74 169.761 126.764C169.74 126.788 169.723 126.816 169.712 126.847C169.701 126.877 169.696 126.91 169.697 126.942C169.699 126.974 169.707 127.006 169.721 127.035C170.901 129.57 172.801 133.736 172.875 134.126C172.812 134.308 171.878 134.651 170.917 134.833C170.854 134.844 170.797 134.879 170.76 134.932C170.722 134.984 170.707 135.048 170.716 135.112C170.726 135.175 170.759 135.232 170.81 135.271C170.862 135.31 170.926 135.327 170.989 135.319V135.32Z" fill="#19323C"/>
<path opacity="0.52" d="M169.574 139.707C171.134 139.505 172.624 138.938 173.925 138.052C173.98 138.017 174.018 137.961 174.031 137.897C174.045 137.833 174.032 137.767 173.997 137.712C173.961 137.658 173.905 137.619 173.842 137.606C173.778 137.592 173.711 137.605 173.657 137.64C170.842 139.477 168.045 139.774 165.568 138.499C165.518 138.471 165.467 138.447 165.414 138.425C165.353 138.403 165.285 138.406 165.226 138.434C165.167 138.461 165.121 138.511 165.099 138.573C165.077 138.634 165.08 138.702 165.108 138.761C165.136 138.82 165.186 138.866 165.247 138.888C165.266 138.896 165.297 138.913 165.343 138.938C166.646 139.61 168.119 139.878 169.574 139.707Z" fill="#19323C"/>
<path d="M139.231 130.757L147.804 129.184C154.296 126.553 156.259 115.301 156.259 115.301C156.259 115.301 164.145 122.997 183.254 118.619C183.254 118.619 179.423 91.9351 151.191 99.6919C142.087 102.194 135.554 111.379 136.368 123.655C136.939 132.26 139.231 130.757 139.231 130.757Z" fill="#0A0A0A"/>
<path d="M149.796 139.721C146.89 140.272 143.946 137.605 143.394 134.695C142.842 131.786 144.897 129.735 147.803 129.184L149.668 130.85L152.292 139.248L149.796 139.721Z" fill="#E98862"/>
<path d="M171.918 121.962C172.766 121.414 173.745 121.104 174.753 121.066C175.25 121.044 175.747 121.096 176.227 121.222C176.703 121.344 177.162 121.526 177.593 121.764C177.654 121.793 177.7 121.846 177.722 121.91C177.744 121.974 177.74 122.045 177.711 122.106C177.681 122.167 177.629 122.214 177.565 122.236C177.501 122.259 177.431 122.255 177.37 122.226L177.352 122.218C176.954 122.022 176.533 121.877 176.098 121.786C175.669 121.694 175.229 121.668 174.792 121.707C173.925 121.78 173.092 122.081 172.379 122.58L172.356 122.597C172.315 122.627 172.268 122.649 172.219 122.66C172.17 122.672 172.119 122.674 172.069 122.666C172.019 122.659 171.971 122.641 171.928 122.614C171.884 122.588 171.847 122.553 171.817 122.512C171.787 122.471 171.766 122.424 171.754 122.375C171.742 122.326 171.74 122.275 171.748 122.225C171.756 122.174 171.774 122.126 171.8 122.083C171.826 122.04 171.861 122.002 171.902 121.972L171.918 121.962Z" fill="#19323C"/>
<path d="M164.273 123.764C163.428 123.557 162.543 123.577 161.709 123.823C161.287 123.944 160.885 124.128 160.518 124.369C160.146 124.611 159.806 124.9 159.505 125.227L159.492 125.241C159.445 125.288 159.381 125.315 159.315 125.316C159.248 125.317 159.184 125.293 159.135 125.247C159.086 125.202 159.057 125.139 159.054 125.072C159.05 125.006 159.073 124.941 159.117 124.89C159.433 124.513 159.795 124.178 160.195 123.891C160.598 123.6 161.042 123.371 161.513 123.213C162.467 122.884 163.492 122.819 164.48 123.023C164.581 123.044 164.668 123.105 164.724 123.191C164.78 123.277 164.799 123.382 164.777 123.483C164.756 123.583 164.695 123.671 164.609 123.727C164.523 123.782 164.418 123.801 164.318 123.78L164.302 123.776L164.273 123.764Z" fill="#19323C"/>
<path opacity="0.52" d="M169.906 142.017C170.188 141.984 170.468 141.928 170.741 141.848C170.803 141.83 170.856 141.788 170.888 141.731C170.919 141.674 170.927 141.607 170.909 141.544C170.891 141.481 170.849 141.428 170.792 141.397C170.735 141.365 170.668 141.358 170.605 141.376C168.961 141.849 168.027 141.224 167.988 141.195C167.934 141.157 167.868 141.143 167.804 141.154C167.74 141.165 167.683 141.202 167.645 141.255C167.608 141.309 167.593 141.375 167.604 141.44C167.616 141.504 167.652 141.561 167.706 141.599C168.369 141.988 169.146 142.136 169.906 142.017Z" fill="#19323C"/>
<path d="M147.824 129.075L147.738 128.837C158.599 124.934 155.943 114.262 155.915 114.155L156.159 114.09C156.187 114.2 158.904 125.092 147.824 129.075Z" fill="#19323C"/>
<path opacity="0.1" d="M163.244 136.027C164.497 135.892 165.433 135.036 165.334 134.115C165.235 133.194 164.139 132.557 162.885 132.692C161.631 132.827 160.695 133.683 160.794 134.604C160.893 135.525 161.99 136.162 163.244 136.027Z" fill="#19323C"/>
<path opacity="0.1" d="M176.556 132.544C176.657 133.463 177.754 134.099 179.008 133.966C179.225 133.942 179.438 133.896 179.646 133.829C179.716 132.734 179.732 131.682 179.711 130.706C179.364 130.615 179.004 130.59 178.648 130.631C177.394 130.764 176.458 131.62 176.556 132.544Z" fill="#19323C"/>
<path d="M200.807 194.196C200.235 200.925 197.452 242.908 196.902 251.197H124.125C123.696 243.721 118.749 211.032 117.126 196.413C115.576 182.464 112.534 175.48 114.763 171.355C118.406 164.615 128.36 160.72 135.147 159.8C139.292 159.239 145.525 158.836 145.525 158.836C145.525 158.836 146.053 169.526 158.638 170.121C175.77 170.929 174.626 158.836 174.71 158.836C177.486 158.836 193.341 160.595 197.22 162.897C207.788 169.164 202.021 179.938 200.807 194.196Z" fill="#008000"/>
<path d="M248.047 198.897L241.031 233.037C240.89 233.73 240.515 234.354 239.969 234.804C239.424 235.254 238.741 235.503 238.034 235.51L189.728 235.922C189.268 235.926 188.812 235.826 188.394 235.631C187.977 235.436 187.608 235.149 187.316 234.793C187.023 234.436 186.814 234.019 186.703 233.571C186.592 233.123 186.583 232.656 186.676 232.204L193.691 198.064C193.833 197.371 194.209 196.747 194.755 196.298C195.301 195.848 195.984 195.6 196.691 195.594L244.997 195.182C245.457 195.178 245.912 195.278 246.329 195.473C246.746 195.669 247.114 195.955 247.407 196.311C247.699 196.667 247.908 197.084 248.019 197.532C248.13 197.979 248.139 198.446 248.047 198.897Z" fill="#19323C"/>
<path d="M203.003 223.147C203.029 223.597 202.891 224.04 202.616 224.397C202.341 224.753 201.947 224.997 201.506 225.085L200.019 225.414C200.045 225.422 200.069 225.437 200.088 225.458C200.108 225.478 200.122 225.503 200.129 225.53C200.133 225.561 200.126 225.593 200.109 225.62C200.467 225.721 200.784 225.931 201.017 226.22C201.25 226.51 201.388 226.865 201.41 227.236C201.412 227.668 201.268 228.089 201.002 228.43C200.736 228.77 200.363 229.011 199.943 229.113L187.386 231.904C186.744 232.049 186.088 232.122 185.43 232.121C183.964 232.121 182.521 231.764 181.224 231.081C179.927 230.398 178.815 229.409 177.985 228.2C177.104 226.92 176.757 225.348 177.016 223.816C177.276 222.284 178.123 220.914 179.376 219.998L190.058 212.179C190.293 212.007 190.566 211.895 190.854 211.851L189.871 216.631L190.133 216.571L190.189 216.56L198.38 214.89C199.293 214.688 200.543 215.021 200.704 216.061C200.791 216.459 200.74 216.874 200.561 217.24C200.381 217.606 200.084 217.9 199.716 218.075C199.721 218.08 199.731 218.085 199.731 218.095C199.731 218.105 199.726 218.11 199.726 218.12L201.143 217.807C201.402 217.75 201.671 217.75 201.929 217.809C202.188 217.868 202.431 217.984 202.64 218.148C202.848 218.312 203.018 218.521 203.137 218.759C203.255 218.996 203.32 219.258 203.325 219.523C203.325 219.948 203.179 220.359 202.911 220.687C202.642 221.016 202.269 221.241 201.853 221.325L201.244 221.461C201.239 221.482 201.244 221.502 201.233 221.517C201.678 221.52 202.105 221.689 202.432 221.99C202.759 222.292 202.963 222.704 203.003 223.147Z" fill="#E98862"/>
<g opacity="0.25">
<path d="M191.572 219.777C191.582 219.819 191.607 219.856 191.644 219.879C191.68 219.903 191.724 219.911 191.767 219.902L199.604 218.293C199.625 218.288 199.646 218.28 199.664 218.268C199.682 218.255 199.697 218.24 199.709 218.222C199.721 218.203 199.729 218.183 199.733 218.162C199.738 218.14 199.737 218.118 199.733 218.097C199.729 218.076 199.72 218.056 199.708 218.038C199.696 218.02 199.68 218.004 199.662 217.992C199.644 217.98 199.624 217.972 199.602 217.968C199.581 217.964 199.559 217.964 199.538 217.968L191.7 219.577C191.657 219.586 191.619 219.612 191.595 219.648C191.571 219.685 191.562 219.73 191.571 219.773L191.572 219.777Z" fill="#19323C"/>
</g>
<g opacity="0.25">
<path d="M192.185 223.258C192.195 223.3 192.221 223.337 192.257 223.36C192.294 223.383 192.338 223.392 192.38 223.383L201.127 221.587C201.17 221.578 201.208 221.553 201.232 221.516C201.256 221.479 201.265 221.434 201.256 221.391C201.246 221.349 201.22 221.312 201.184 221.288C201.147 221.264 201.103 221.255 201.061 221.262L192.312 223.058C192.291 223.063 192.271 223.071 192.253 223.083C192.235 223.096 192.22 223.111 192.208 223.129C192.196 223.147 192.187 223.168 192.183 223.189C192.179 223.211 192.179 223.232 192.183 223.254L192.185 223.258Z" fill="#19323C"/>
</g>
<g opacity="0.25">
<path d="M192.828 227.03C192.838 227.072 192.864 227.109 192.9 227.132C192.936 227.156 192.98 227.164 193.023 227.155L200 225.722C200.021 225.718 200.041 225.71 200.059 225.697C200.077 225.685 200.093 225.67 200.105 225.651C200.117 225.633 200.125 225.613 200.129 225.591C200.133 225.57 200.133 225.548 200.129 225.527C200.124 225.506 200.116 225.485 200.104 225.467C200.091 225.449 200.076 225.434 200.058 225.422C200.04 225.41 200.019 225.402 199.998 225.397C199.977 225.393 199.955 225.394 199.933 225.398L192.956 226.83C192.913 226.839 192.875 226.865 192.851 226.902C192.827 226.938 192.818 226.983 192.827 227.026L192.828 227.03Z" fill="#19323C"/>
</g>
<path d="M186.609 236.879L118.483 249.206C116.357 249.438 114.207 249.172 112.201 248.432C110.194 247.691 108.387 246.496 106.92 244.938C105.453 243.381 104.366 241.504 103.745 239.456C103.124 237.407 102.985 235.242 103.34 233.131L112.874 176.37C113.174 174.574 113.825 172.855 114.789 171.312C115.753 169.768 117.012 168.429 118.493 167.373C119.973 166.316 121.648 165.562 123.42 165.154C125.192 164.746 127.027 164.691 128.82 164.993C130.613 165.295 132.329 165.948 133.871 166.914C135.412 167.881 136.747 169.142 137.801 170.625C138.855 172.109 139.607 173.786 140.014 175.561C140.42 177.335 140.473 179.173 140.17 180.968L133.668 220.042L183.614 213.762L186.609 236.879Z" fill="#008000"/>
<path d="M118.482 249.459C118.419 249.459 118.359 249.435 118.312 249.392C118.266 249.35 118.237 249.291 118.232 249.229C118.226 249.166 118.244 249.103 118.282 249.053C118.32 249.003 118.376 248.969 118.438 248.958L186.328 236.674L183.396 214.043L133.699 220.292C133.66 220.298 133.62 220.294 133.583 220.281C133.546 220.267 133.513 220.246 133.486 220.217C133.458 220.189 133.438 220.155 133.426 220.117C133.415 220.079 133.412 220.04 133.418 220.001L137.552 195.027C137.557 194.995 137.569 194.963 137.586 194.935C137.603 194.906 137.626 194.882 137.653 194.863C137.68 194.843 137.711 194.83 137.743 194.822C137.776 194.815 137.809 194.814 137.842 194.82C137.875 194.825 137.906 194.837 137.934 194.855C137.962 194.872 137.987 194.895 138.006 194.922C138.025 194.949 138.039 194.979 138.046 195.012C138.054 195.044 138.055 195.077 138.05 195.11L133.97 219.749L183.582 213.511C183.648 213.503 183.714 213.521 183.767 213.562C183.82 213.603 183.854 213.663 183.863 213.729L186.858 236.846C186.866 236.91 186.85 236.975 186.812 237.027C186.773 237.079 186.717 237.115 186.653 237.126L118.527 249.455C118.513 249.457 118.497 249.459 118.482 249.459Z" fill="#19323C"/>
<path d="M133.629 219.793L129.246 220.496L129.326 220.995L133.708 220.292L133.629 219.793Z" fill="#19323C"/>
<path d="M473.283 279.246H324.194C318.002 279.246 312.981 284.273 312.981 290.473V341.586C312.981 347.786 318.002 352.813 324.194 352.813H473.283C479.476 352.813 484.496 347.786 484.496 341.586V290.473C484.496 284.273 479.476 279.246 473.283 279.246Z" fill="#F7FFF7"/>
<path opacity="0.4" d="M473.283 279.246H324.194C318.002 279.246 312.981 284.273 312.981 290.473V341.586C312.981 347.786 318.002 352.813 324.194 352.813H473.283C479.476 352.813 484.496 347.786 484.496 341.586V290.473C484.496 284.273 479.476 279.246 473.283 279.246Z" fill="#008000"/>
<path d="M473.283 353.315H324.194C321.088 353.312 318.11 352.074 315.913 349.875C313.717 347.675 312.481 344.693 312.477 341.583V290.475C312.481 287.365 313.717 284.383 315.913 282.184C318.11 279.984 321.088 278.747 324.194 278.743H473.283C476.389 278.747 479.368 279.984 481.564 282.184C483.761 284.383 484.996 287.365 485 290.475V341.585C484.996 344.695 483.76 347.677 481.563 349.876C479.367 352.075 476.389 353.312 473.283 353.315ZM324.194 279.751C321.355 279.754 318.633 280.885 316.625 282.896C314.617 284.906 313.488 287.632 313.485 290.475V341.585C313.489 344.428 314.619 347.152 316.626 349.162C318.634 351.172 321.356 352.302 324.194 352.306H473.283C476.122 352.302 478.844 351.172 480.852 349.162C482.859 347.151 483.989 344.426 483.992 341.583V290.475C483.989 287.633 482.859 284.907 480.852 282.897C478.844 280.887 476.122 279.756 473.283 279.753L324.194 279.751Z" fill="#19323C"/>
<path d="M328.361 337.138C328.226 337.138 328.092 337.101 327.975 337.032C327.859 336.963 327.763 336.863 327.698 336.744C327.633 336.624 327.601 336.49 327.606 336.354C327.61 336.218 327.652 336.086 327.725 335.971C327.889 335.719 344.366 310.493 370.551 310.493C384.233 310.493 392.523 315.779 400.54 320.89C407.961 325.623 414.971 330.093 425.818 330.093C447.994 330.093 465.859 297.845 466.037 297.519C466.133 297.343 466.295 297.212 466.488 297.156C466.68 297.099 466.887 297.121 467.063 297.218C467.239 297.314 467.37 297.476 467.426 297.669C467.483 297.862 467.46 298.069 467.364 298.245C466.621 299.608 448.883 331.608 425.818 331.608C414.53 331.608 407.34 327.023 399.728 322.17C391.893 317.173 383.792 312.008 370.551 312.008C345.203 312.008 329.157 336.543 328.998 336.791C328.929 336.897 328.835 336.985 328.724 337.046C328.613 337.106 328.488 337.138 328.361 337.138Z" fill="#F7FFF7"/>
<path d="M466.913 300.846C468.547 300.846 469.872 299.52 469.872 297.884C469.872 296.247 468.547 294.921 466.913 294.921C465.278 294.921 463.953 296.247 463.953 297.884C463.953 299.52 465.278 300.846 466.913 300.846Z" fill="#F7FFF7"/>
</g>
<defs>
<clipPath id="clip0_5_19">
<rect width="485" height="487" fill="white"/>
</clipPath>
</defs>
</svg>
